<svg width="12" height="7" viewBox="0 0 12 7" fill="none" xmlns="http://www.w3.org/2000/svg">
<path d="M11.77 1.38356C11.9188 1.23288 12 1.0411 12 0.815068C12 0.363014 11.6483 -1.99215e-08 11.2018 0C10.9786 9.96073e-09 10.7756 0.0958904 10.6201 0.253425L5.99324 5.04795L1.37993 0.253425C1.22435 0.0958908 1.01466 4.54571e-07 0.798196 4.6423e-07C0.351747 4.84152e-07 -1.93567e-08 0.363014 0 0.815069C9.67834e-09 1.0411 0.0811725 1.23288 0.229989 1.38356L5.37091 6.71233C5.54679 6.90411 5.76325 6.99315 6 7C6.23675 7 6.43968 6.90411 6.62232 6.71233L11.77 1.38356Z" fill="#757575" fill-opacity="0.8"/>
</svg>
