<svg width="18" height="18" viewBox="0 0 18 18"  fill="#F3F3F3" xmlns="http://www.w3.org/2000/svg">
<path d="M9 0.5C4.30558 0.5 0.5 4.30558 0.5 9C0.5 13.6944 4.30558 17.5 9 17.5C13.4176 17.5 17.0476 14.1303 17.4608 9.82074C17.4801 9.62017 17.377 9.42765 17.1995 9.33241C17.0219 9.23716 16.8045 9.2578 16.6481 9.38477C15.7884 10.0824 14.6937 10.5 13.5 10.5C10.7386 10.5 8.5 8.26142 8.5 5.5C8.5 3.8599 9.28915 2.40423 10.5106 1.49167C10.6721 1.37101 10.7453 1.16516 10.6963 0.969613C10.6473 0.774061 10.4857 0.627057 10.2864 0.596784C9.86662 0.533022 9.43701 0.5 9 0.5Z"/>
</svg>
