<svg width="13" height="13" viewBox="0 0 13 13" xmlns="http://www.w3.org/2000/svg">
<path d="M5.40555 11.6438C5.40555 12.1096 5.78315 12.4872 6.24893 12.4872C6.71472 12.4872 7.09232 12.1096 7.09232 11.6438V7.08201H11.6595C12.1225 7.08201 12.4979 6.70664 12.4979 6.24361C12.4979 5.78057 12.1225 5.40521 11.6595 5.40521H7.09232V0.843384C7.09232 0.377596 6.71472 0 6.24893 0C5.78315 0 5.40555 0.377596 5.40555 0.843384V5.40521H0.838399C0.375364 5.40521 0 5.78057 0 6.24361C0 6.70664 0.375364 7.08201 0.838399 7.08201H5.40555V11.6438Z" fill="#EC5739"/>
</svg>
